<?xml version="1.0" encoding="UTF-8" standalone="no"?>
<svg
   xmlns:dc="http://purl.org/dc/elements/1.1/"
   xmlns:cc="http://creativecommons.org/ns#"
   xmlns:rdf="http://www.w3.org/1999/02/22-rdf-syntax-ns#"
   xmlns:svg="http://www.w3.org/2000/svg"
   xmlns="http://www.w3.org/2000/svg"
   xmlns:sodipodi="http://sodipodi.sourceforge.net/DTD/sodipodi-0.dtd"
   xmlns:inkscape="http://www.inkscape.org/namespaces/inkscape"
   width="24"
   height="24"
   viewBox="0 0 24 24"
   version="1.1"
   id="svg6411"
   sodipodi:docname="baseline-battery_charging_full-24px_white.svg"
   inkscape:version="0.92.2 2405546, 2018-03-11">
  <metadata
     id="metadata6417">
    <rdf:RDF>
      <cc:Work
         rdf:about="">
        <dc:format>image/svg+xml</dc:format>
        <dc:type
           rdf:resource="http://purl.org/dc/dcmitype/StillImage" />
        <dc:title></dc:title>
      </cc:Work>
    </rdf:RDF>
  </metadata>
  <defs
     id="defs6415" />
  <sodipodi:namedview
     pagecolor="#ffffff"
     bordercolor="#666666"
     borderopacity="1"
     objecttolerance="10"
     gridtolerance="10"
     guidetolerance="10"
     inkscape:pageopacity="0"
     inkscape:pageshadow="2"
     inkscape:window-width="958"
     inkscape:window-height="1060"
     id="namedview6413"
     showgrid="false"
     inkscape:zoom="9.8333333"
     inkscape:cx="-5.6949153"
     inkscape:cy="3.8644068"
     inkscape:window-x="0"
     inkscape:window-y="18"
     inkscape:window-maximized="0"
     inkscape:current-layer="svg6411" />
  <path
     d="M0 0h24v24H0z"
     fill="none"
     id="path6407" />
  <path
     d="M15.67 4H14V2h-4v2H8.33C7.6 4 7 4.6 7 5.33v15.33C7 21.4 7.6 22 8.33 22h7.33c.74 0 1.34-.6 1.34-1.33V5.33C17 4.6 16.4 4 15.67 4zM11 20v-5.5H9L13 7v5.5h2L11 20z"
     id="path6409"
     style="fill:#fafafa;fill-opacity:1" />
  <path
     style="fill:#fafafa;fill-opacity:1;stroke-width:0.10169491"
     d="m 11.04716,17.113852 -0.0031,-2.665809 -0.961988,-0.02911 -0.9619884,-0.02911 1.9026664,-3.571497 1.902666,-3.5714969 0.02711,2.6271565 0.02711,2.6271564 0.962466,0.02909 0.962466,0.02909 -1.838023,3.457627 c -1.010913,1.901695 -1.878134,3.526271 -1.927157,3.61017 -0.05271,0.09021 -0.0904,-0.936716 -0.09223,-2.513267 z"
     id="path6993"
     inkscape:connector-curvature="0" />
  <path
     style="fill:#000000;fill-opacity:1;stroke-width:0.10169491"
     d="m 11.044068,17.101695 v -2.661017 h -0.974576 c -0.5360174,0 -0.9593225,-0.03763 -0.9406784,-0.08363 0.018644,-0.046 0.8805084,-1.670045 1.9152544,-3.608995 l 1.881356,-3.5253637 0.02711,2.6428927 0.02711,2.642893 h 0.964413 c 0.530428,0 0.964414,0.01807 0.964414,0.04016 0,0.04823 -3.76577,7.11094 -3.823884,7.171707 -0.02229,0.02331 -0.04052,-1.155085 -0.04052,-2.618644 z"
     id="path6995"
     inkscape:connector-curvature="0" />
  <path
     style="fill:#000000;fill-opacity:1;stroke-width:0.10169491"
     d="m 11.110611,18.188678 c -0.0366,-0.680658 -0.06654,-1.802409 -0.06654,-2.49278 v -1.25522 l -0.483051,-0.0075 c -0.265678,-0.0041 -0.6761636,-0.03847 -0.9121903,-0.07627 l -0.4291395,-0.06873 1.8020208,-3.387813 1.802021,-3.3878127 0.06249,2.421711 c 0.03437,1.3319407 0.06869,2.4560327 0.07627,2.4979817 0.0076,0.04195 0.254036,0.07891 0.54768,0.08213 0.293645,0.0032 0.7056,0.03755 0.915458,0.07627 l 0.381558,0.07041 -1.789117,3.355932 c -0.984015,1.845763 -1.800772,3.367937 -1.815016,3.38261 -0.01424,0.01467 -0.05584,-0.530224 -0.09244,-1.210881 z"
     id="path6997"
     inkscape:connector-curvature="0" />
</svg>
