<?xml version="1.0" encoding="UTF-8" standalone="no"?>
<svg
   xmlns:dc="http://purl.org/dc/elements/1.1/"
   xmlns:cc="http://creativecommons.org/ns#"
   xmlns:rdf="http://www.w3.org/1999/02/22-rdf-syntax-ns#"
   xmlns:svg="http://www.w3.org/2000/svg"
   xmlns="http://www.w3.org/2000/svg"
   xmlns:sodipodi="http://sodipodi.sourceforge.net/DTD/sodipodi-0.dtd"
   xmlns:inkscape="http://www.inkscape.org/namespaces/inkscape"
   width="24"
   height="24"
   viewBox="0 0 24 24"
   version="1.1"
   id="svg4685"
   sodipodi:docname="baseline-wifi_off-24px.svg"
   inkscape:version="0.92.2 2405546, 2018-03-11">
  <metadata
     id="metadata4691">
    <rdf:RDF>
      <cc:Work
         rdf:about="">
        <dc:format>image/svg+xml</dc:format>
        <dc:type
           rdf:resource="http://purl.org/dc/dcmitype/StillImage" />
      </cc:Work>
    </rdf:RDF>
  </metadata>
  <defs
     id="defs4689" />
  <sodipodi:namedview
     pagecolor="#ffffff"
     bordercolor="#666666"
     borderopacity="1"
     objecttolerance="10"
     gridtolerance="10"
     guidetolerance="10"
     inkscape:pageopacity="0"
     inkscape:pageshadow="2"
     inkscape:window-width="1918"
     inkscape:window-height="1060"
     id="namedview4687"
     showgrid="false"
     inkscape:zoom="9.8333333"
     inkscape:cx="-5.6949153"
     inkscape:cy="12"
     inkscape:window-x="0"
     inkscape:window-y="18"
     inkscape:window-maximized="0"
     inkscape:current-layer="svg4685" />
  <path
     fill="none"
     d="M24 .01c0-.01 0-.01 0 0L0 0v24h24V.01zM0 0h24v24H0V0zm0 0h24v24H0V0z"
     id="path4681" />
  <path
     d="M22.99 9C19.15 5.16 13.8 3.76 8.84 4.78l2.52 2.52c3.47-.17 6.99 1.05 9.63 3.7l2-2zm-4 4c-1.29-1.29-2.84-2.13-4.49-2.56l3.53 3.53.96-.97zM2 3.05L5.07 6.1C3.6 6.82 2.22 7.78 1 9l1.99 2c1.24-1.24 2.67-2.16 4.2-2.77l2.24 2.24C7.81 10.89 6.27 11.73 5 13v.01L6.99 15c1.36-1.36 3.14-2.04 4.92-2.06L18.98 20l1.27-1.26L3.29 1.79 2 3.05zM9 17l3 3 3-3c-1.65-1.66-4.34-1.66-6 0z"
     id="path4683"
     style="fill:#ffffff;fill-opacity:1" />
</svg>
