<?xml version="1.0" encoding="UTF-8" standalone="no"?>
<svg
   xmlns:dc="http://purl.org/dc/elements/1.1/"
   xmlns:cc="http://creativecommons.org/ns#"
   xmlns:rdf="http://www.w3.org/1999/02/22-rdf-syntax-ns#"
   xmlns:svg="http://www.w3.org/2000/svg"
   xmlns="http://www.w3.org/2000/svg"
   xmlns:sodipodi="http://sodipodi.sourceforge.net/DTD/sodipodi-0.dtd"
   xmlns:inkscape="http://www.inkscape.org/namespaces/inkscape"
   width="24"
   height="24"
   viewBox="0 0 24 24"
   version="1.1"
   id="svg6"
   sodipodi:docname="baseline-email-on-24px.svg"
   inkscape:version="0.92.2 2405546, 2018-03-11">
  <metadata
     id="metadata12">
    <rdf:RDF>
      <cc:Work
         rdf:about="">
        <dc:format>image/svg+xml</dc:format>
        <dc:type
           rdf:resource="http://purl.org/dc/dcmitype/StillImage" />
        <dc:title></dc:title>
      </cc:Work>
    </rdf:RDF>
  </metadata>
  <defs
     id="defs10" />
  <sodipodi:namedview
     pagecolor="#ffffff"
     bordercolor="#666666"
     borderopacity="1"
     objecttolerance="10"
     gridtolerance="10"
     guidetolerance="10"
     inkscape:pageopacity="0"
     inkscape:pageshadow="2"
     inkscape:window-width="1920"
     inkscape:window-height="1062"
     id="namedview8"
     showgrid="false"
     inkscape:zoom="27.812867"
     inkscape:cx="8.1856079"
     inkscape:cy="12.984759"
     inkscape:window-x="0"
     inkscape:window-y="18"
     inkscape:window-maximized="1"
     inkscape:current-layer="svg6" />
  <path
     d="M20 4H4c-1.1 0-1.99.9-1.99 2L2 18c0 1.1.9 2 2 2h16c1.1 0 2-.9 2-2V6c0-1.1-.9-2-2-2zm0 4l-8 5-8-5V6l8 5 8-5v2z"
     id="path2"
     style="fill:#ea6f81;fill-opacity:1" />
  <path
     d="M0 0h24v24H0z"
     fill="none"
     id="path4" />
  <path
     style="fill:#fafafa;fill-opacity:1;stroke-width:0.03595458"
     d="M 7.9788691,10.468201 4.0148764,7.9861761 V 7.0198425 c 0,-0.5314834 0.00812,-0.9663335 0.018048,-0.9663335 0.00993,0 1.8065952,1.1178931 3.9925978,2.4842069 l 3.9745498,2.4842071 3.958821,-2.4752185 c 2.177351,-1.36137 3.972545,-2.4806114 3.989319,-2.487203 0.01677,-0.00659 0.0305,0.4251693 0.0305,0.9594688 V 7.9904241 L 16.0058,10.473606 c -2.185101,1.365751 -3.993167,2.481706 -4.017925,2.479902 -0.02476,-0.0018 -1.82881,-1.120193 -4.0090059,-2.485307 z"
     id="path822"
     inkscape:connector-curvature="0" />
  <path
     style="fill:#000000;fill-opacity:1;stroke-width:0.03595458"
     d="M 7.9788691,10.471275 4.0148764,7.9904236 V 7.0219663 c 0,-0.5326515 0.00976,-0.9684573 0.021683,-0.9684573 0.011926,0 1.808675,1.1169209 3.9927762,2.4820463 l 3.9710934,2.4820457 3.971093,-2.4820457 c 2.184101,-1.3651254 3.979475,-2.4820463 3.989719,-2.4820463 0.01024,0 0.01432,0.4393594 0.0091,0.9763541 l -0.0096,0.9763541 -3.955004,2.4739158 c -2.175253,1.360653 -3.979274,2.473483 -4.008936,2.472954 -0.02966,-5.29e-4 -1.837729,-1.117344 -4.0179249,-2.481812 z"
     id="path824"
     inkscape:connector-curvature="0" />
</svg>
