<?xml version="1.0" encoding="UTF-8" standalone="no"?>
<svg
   xmlns:dc="http://purl.org/dc/elements/1.1/"
   xmlns:cc="http://creativecommons.org/ns#"
   xmlns:rdf="http://www.w3.org/1999/02/22-rdf-syntax-ns#"
   xmlns:svg="http://www.w3.org/2000/svg"
   xmlns="http://www.w3.org/2000/svg"
   xmlns:sodipodi="http://sodipodi.sourceforge.net/DTD/sodipodi-0.dtd"
   xmlns:inkscape="http://www.inkscape.org/namespaces/inkscape"
   width="24"
   height="24"
   viewBox="0 0 24 24"
   version="1.1"
   id="svg6399"
   sodipodi:docname="baseline-battery_alert-24px_white.svg"
   inkscape:version="0.92.2 2405546, 2018-03-11">
  <metadata
     id="metadata6405">
    <rdf:RDF>
      <cc:Work
         rdf:about="">
        <dc:format>image/svg+xml</dc:format>
        <dc:type
           rdf:resource="http://purl.org/dc/dcmitype/StillImage" />
        <dc:title></dc:title>
      </cc:Work>
    </rdf:RDF>
  </metadata>
  <defs
     id="defs6403" />
  <sodipodi:namedview
     pagecolor="#ffffff"
     bordercolor="#666666"
     borderopacity="1"
     objecttolerance="10"
     gridtolerance="10"
     guidetolerance="10"
     inkscape:pageopacity="0"
     inkscape:pageshadow="2"
     inkscape:window-width="958"
     inkscape:window-height="1060"
     id="namedview6401"
     showgrid="false"
     inkscape:zoom="9.8333333"
     inkscape:cx="-5.6949153"
     inkscape:cy="12"
     inkscape:window-x="0"
     inkscape:window-y="18"
     inkscape:window-maximized="0"
     inkscape:current-layer="svg6399" />
  <path
     d="M0 0h24v24H0z"
     fill="none"
     id="path6395" />
  <path
     d="M15.67 4H14V2h-4v2H8.33C7.6 4 7 4.6 7 5.33v15.33C7 21.4 7.6 22 8.33 22h7.33c.74 0 1.34-.6 1.34-1.33V5.33C17 4.6 16.4 4 15.67 4zM13 18h-2v-2h2v2zm0-4h-2V9h2v5z"
     id="path6397"
     style="fill:#fafafa;fill-opacity:1" />
  <path
     style="fill:#000000;fill-opacity:1;stroke-width:0.10169491"
     d="M 11.044068,11.491525 V 9.0508475 h 0.966101 0.966102 v 2.4406775 2.440678 h -0.966102 -0.966101 z"
     id="path7561"
     inkscape:connector-curvature="0" />
  <path
     style="fill:#000000;fill-opacity:1;stroke-width:0.10169491"
     d="m 11.044068,17.033898 v -0.966101 h 0.966101 0.966102 V 17.033898 18 h -0.966102 -0.966101 z"
     id="path7563"
     inkscape:connector-curvature="0" />
</svg>
