<?xml version="1.0" encoding="UTF-8" standalone="no"?>
<svg
   xmlns:dc="http://purl.org/dc/elements/1.1/"
   xmlns:cc="http://creativecommons.org/ns#"
   xmlns:rdf="http://www.w3.org/1999/02/22-rdf-syntax-ns#"
   xmlns:svg="http://www.w3.org/2000/svg"
   xmlns="http://www.w3.org/2000/svg"
   xmlns:sodipodi="http://sodipodi.sourceforge.net/DTD/sodipodi-0.dtd"
   xmlns:inkscape="http://www.inkscape.org/namespaces/inkscape"
   aria-hidden="true"
   data-prefix="far"
   data-icon="hdd"
   class="svg-inline--fa fa-hdd fa-w-18"
   role="img"
   viewBox="0 0 633.6 563.2"
   version="1.1"
   id="svg852"
   sodipodi:docname="hdd-regular.svg"
   width="576"
   height="512"
   inkscape:version="0.92.2 2405546, 2018-03-11">
  <metadata
     id="metadata858">
    <rdf:RDF>
      <cc:Work
         rdf:about="">
        <dc:format>image/svg+xml</dc:format>
        <dc:type
           rdf:resource="http://purl.org/dc/dcmitype/StillImage" />
        <dc:title></dc:title>
      </cc:Work>
    </rdf:RDF>
  </metadata>
  <defs
     id="defs856" />
  <sodipodi:namedview
     pagecolor="#ffffff"
     bordercolor="#666666"
     borderopacity="1"
     objecttolerance="10"
     gridtolerance="10"
     guidetolerance="10"
     inkscape:pageopacity="0"
     inkscape:pageshadow="2"
     inkscape:window-width="1920"
     inkscape:window-height="1080"
     id="namedview854"
     showgrid="false"
     scale-x="1.1"
     inkscape:zoom="1.703125"
     inkscape:cx="288"
     inkscape:cy="256"
     inkscape:window-x="0"
     inkscape:window-y="0"
     inkscape:window-maximized="1"
     inkscape:current-layer="svg852" />
  <path
     d="m 599.69658,252.43466 -105.08,-151.053 a 48,48 0 0 0 -39.404,-20.588999 h -269.838 a 48,48 0 0 0 -39.404,20.588999 l -105.080002,151.053 a 48.001,48.001 0 0 0 -8.597,27.412 v 136.946 c 0,26.51 21.49,48 48,48 H 560.29358 c 26.51,0 48,-21.49 48,-48 v -136.946 c 0,-9.801 -3,-19.366 -8.597,-27.412 z m -414.322,-123.642 h 269.838 l 77.913,112 h -425.664 z m 374.919,288 H 80.293578 v -128 H 560.29358 Z m -32,-64 c 0,17.673 -14.327,32 -32,32 -17.673,0 -32,-14.327 -32,-32 0,-17.673 14.327,-32 32,-32 17.673,0 32,14.327 32,32 z m -96,0 c 0,17.673 -14.327,32 -32,32 -17.673,0 -32,-14.327 -32,-32 0,-17.673 14.327,-32 32,-32 17.673,0 32,14.327 32,32 z"
     id="path850"
     inkscape:connector-curvature="0"
     style="fill:#fafafa;fill-opacity:1" />
</svg>
