<?xml version="1.0" encoding="UTF-8" standalone="no"?>
<svg
   xmlns:dc="http://purl.org/dc/elements/1.1/"
   xmlns:cc="http://creativecommons.org/ns#"
   xmlns:rdf="http://www.w3.org/1999/02/22-rdf-syntax-ns#"
   xmlns:svg="http://www.w3.org/2000/svg"
   xmlns="http://www.w3.org/2000/svg"
   xmlns:sodipodi="http://sodipodi.sourceforge.net/DTD/sodipodi-0.dtd"
   xmlns:inkscape="http://www.inkscape.org/namespaces/inkscape"
   aria-hidden="true"
   data-prefix="fas"
   data-icon="thermometer"
   class="svg-inline--fa fa-thermometer fa-w-16"
   role="img"
   viewBox="0 0 614.4 614.4"
   version="1.1"
   id="svg905"
   sodipodi:docname="thermometer-solid.svg"
   width="512"
   height="512"
   inkscape:version="0.92.2 2405546, 2018-03-11">
  <metadata
     id="metadata911">
    <rdf:RDF>
      <cc:Work
         rdf:about="">
        <dc:format>image/svg+xml</dc:format>
        <dc:type
           rdf:resource="http://purl.org/dc/dcmitype/StillImage" />
        <dc:title></dc:title>
      </cc:Work>
    </rdf:RDF>
  </metadata>
  <defs
     id="defs909" />
  <sodipodi:namedview
     pagecolor="#ffffff"
     bordercolor="#666666"
     borderopacity="1"
     objecttolerance="10"
     gridtolerance="10"
     guidetolerance="10"
     inkscape:pageopacity="0"
     inkscape:pageshadow="2"
     inkscape:window-width="1920"
     inkscape:window-height="1062"
     id="namedview907"
     showgrid="false"
     scale-x="1.15"
     inkscape:zoom="1.7382812"
     inkscape:cx="256"
     inkscape:cy="256"
     inkscape:window-x="0"
     inkscape:window-y="18"
     inkscape:window-maximized="1"
     inkscape:current-layer="svg905" />
  <path
     d="m 530.73258,73.87236 c -37.5,-30.7 -95.5,-26.3 -131.9,10.2 l -45.7,46 50.5,50.5 c 3.1,3.1 3.1,8.2 0,11.3 l -11.3,11.3 c -3.1,3.1 -8.2,3.1 -11.3,0 l -50.4,-50.5 -45.1,45.4 50.3,50.4 c 3.1,3.1 3.1,8.2 0,11.3 l -11.3,11.3 c -3.1,3.1 -8.2,3.1 -11.3,0 l -50.3,-50.2 -45.1,45.4 50.1,50.2 c 3.1,3.1 3.1,8.2 0,11.3 l -11.3,11.3 c -3.1,3.1 -8.2,3.1 -11.3,0 l -50.1,-50.2 -45.3,45.7 v 100.9 l -88.999996,89 c -9.4,9.4 -9.4,24.6 0,33.9 9.4,9.4 24.6,9.4 33.9,0 l 88.999996,-89 h 99.9 l 254.2,-253.3 c 34.9,-34.9 42.2,-101.5 -7.2,-142.2 z"
     id="path903"
     inkscape:connector-curvature="0"
     style="fill:#fafafa;fill-opacity:1" />
</svg>
